<?xml version="1.0" encoding="UTF-8"?>
<svg id="Layer_1" data-name="Layer 1" xmlns="http://www.w3.org/2000/svg" xmlns:xlink="http://www.w3.org/1999/xlink" viewBox="0 0 150 150">
  <defs>
    <style>
      .cls-1, .cls-2, .cls-3, .cls-4 {
        stroke-width: 0px;
      }

      .cls-2 {
        fill: none;
      }

      .cls-5 {
        clip-path: url(#clippath-1);
      }

      .cls-3 {
        fill: #fff;
      }

      .cls-6 {
        clip-path: url(#clippath);
      }

      .cls-4 {
        fill: url(#radial-gradient);
      }
    </style>
    <clipPath id="clippath">
      <path class="cls-2" d="M195.27-200.76l307.22-192.57c5.52-3.46,7.69-10.57,4.85-15.88l-105.45-196.91c-2.95-5.52-10.01-7.32-15.77-4.02L65.36-426.35c-6.48,3.71-9.05,11.41-5.72,17.17l118.61,205.45c3.2,5.54,10.82,6.86,17.02,2.98Z"/>
    </clipPath>
    <clipPath id="clippath-1">
      <polygon class="cls-1" points="387.44 -321.22 184.03 -193.72 53.61 -419.62 266.09 -541.37 387.44 -321.22"/>
    </clipPath>
    <radialGradient id="radial-gradient" cx="339.35" cy="-2.72" fx="339.35" fy="-2.72" r="270.99" gradientTransform="translate(-168.95 -188.73)" gradientUnits="userSpaceOnUse">
      <stop offset="0" stop-color="#1d70b7"/>
      <stop offset=".23" stop-color="#1d70b7" stop-opacity=".7"/>
      <stop offset=".49" stop-color="#1d70b7" stop-opacity=".4"/>
      <stop offset=".71" stop-color="#1d70b7" stop-opacity=".18"/>
      <stop offset=".89" stop-color="#1d70b7" stop-opacity=".05"/>
      <stop offset="1" stop-color="#1d70b7" stop-opacity="0"/>
    </radialGradient>
  </defs>
  <g class="cls-6">
    <g>
      <polygon points="387.44 -321.22 184.03 -193.72 53.61 -419.62 266.09 -541.37 387.44 -321.22"/>
      <g class="cls-5">
        <path class="cls-4" d="M418.3-340.56c63.14,115.36,15.08,273.86-111.32,359.79C174.44,109.34,2.96,88.73-71.68-33.44c-76.45-125.12-17.06-299.23,127.57-382.24,137.66-79.01,297.87-42.79,362.41,75.12Z"/>
      </g>
    </g>
  </g>
  <g>
    <g>
      <g>
        <path class="cls-3" d="M21.52,71.35c-.05.67-.22,1.28-.51,1.8-.3.53-.68.97-1.15,1.34-.47.37-.99.64-1.57.82-.57.18-1.15.25-1.74.21-.61-.04-1.19-.2-1.73-.46-.54-.27-1.02-.62-1.43-1.05-.41-.43-.72-.93-.94-1.5s-.3-1.18-.26-1.83c.05-.67.22-1.26.53-1.79s.7-.98,1.17-1.33c.48-.36,1-.62,1.57-.8.57-.17,1.15-.24,1.73-.2.61.04,1.18.19,1.72.45.54.26,1.02.6,1.43,1.04.41.43.72.93.93,1.5.21.57.3,1.17.25,1.82ZM16.67,73.7c.4.03.79,0,1.17-.1.38-.1.72-.25,1.03-.46.31-.21.55-.47.75-.8.19-.32.3-.69.33-1.12.03-.44-.03-.83-.19-1.17s-.37-.63-.65-.88c-.28-.25-.6-.44-.96-.58-.36-.14-.73-.22-1.1-.24-.4-.03-.78,0-1.16.1-.38.1-.72.25-1.02.46s-.55.48-.75.8c-.19.32-.3.69-.33,1.11-.03.42.03.81.19,1.15s.37.64.64.89.59.44.95.59c.36.14.73.23,1.11.25Z"/>
        <path class="cls-3" d="M25.42,63.44l-2.68-.68-.05.2c-.17.69-.47,1.24-.9,1.65s-.92.68-1.48.82c-.56.14-1.13.13-1.71-.01-.59-.15-1.1-.42-1.53-.8-.43-.39-.73-.86-.91-1.43-.18-.57-.18-1.19,0-1.87l.05-.2-2.66-.67.43-1.69,2.66.67.05-.21c.17-.68.47-1.23.9-1.64.42-.42.92-.69,1.48-.83.56-.13,1.14-.13,1.73.02.58.15,1.08.41,1.51.79s.74.86.92,1.43c.18.57.18,1.2,0,1.89l-.05.21,2.69.68-.43,1.69ZM21.33,62.62l.07-.29-3.83-.97-.07.29c-.08.31-.07.61.04.9.1.29.28.54.54.76.25.22.57.37.94.46.37.09.72.11,1.05.04.33-.07.6-.2.82-.41.22-.21.37-.47.45-.79ZM21.78,60.82l.08-.3c.08-.32.07-.62-.02-.91-.1-.29-.27-.54-.53-.75-.25-.21-.57-.36-.94-.46-.37-.09-.72-.11-1.05-.04-.33.07-.6.21-.83.41-.23.21-.38.46-.46.78l-.08.3,3.83.97Z"/>
        <path class="cls-3" d="M25.88,53.73c-.22.51-.5.92-.85,1.25s-.73.57-1.16.72c-.42.16-.86.23-1.3.21-.44-.02-.88-.12-1.3-.3-.44-.19-.82-.44-1.14-.76-.32-.31-.57-.68-.74-1.09-.17-.41-.25-.85-.25-1.33,0-.48.12-.97.34-1.47.22-.52.51-.94.85-1.27.34-.33.72-.57,1.14-.73s.85-.23,1.3-.21c.45.02.9.12,1.34.31.42.18.79.43,1.11.75s.56.68.74,1.1c.17.42.26.86.26,1.34,0,.48-.11.97-.33,1.48ZM21.98,53.98c.35.15.7.22,1.04.2s.65-.12.91-.31c.26-.18.46-.42.59-.73.13-.3.17-.61.12-.93-.05-.32-.19-.61-.4-.88-.21-.27-.5-.48-.86-.63-.35-.15-.7-.21-1.04-.19-.34.03-.64.13-.91.31s-.47.42-.6.73c-.13.3-.17.61-.12.93.05.32.19.61.4.87.21.26.5.47.86.63Z"/>
        <path class="cls-3" d="M29.96,46.07c-.28.45-.63.78-1.05,1-.42.22-.85.32-1.31.3l3.35,2.09-.91,1.47-8.08-5.03.8-1.29.99.62c-.2-.43-.29-.87-.27-1.33.02-.46.16-.91.43-1.34.24-.39.54-.7.9-.93.36-.23.75-.39,1.17-.46.43-.08.86-.07,1.3.02.44.09.86.26,1.26.51.55.34.99.77,1.3,1.26.32.5.49,1.02.52,1.56.03.54-.11,1.06-.42,1.56ZM28.39,45.79c.14-.22.22-.45.24-.7.02-.25,0-.48-.08-.72-.08-.23-.2-.45-.37-.66-.17-.21-.36-.38-.59-.52-.23-.14-.47-.24-.73-.29-.25-.05-.5-.05-.75,0-.24.05-.47.15-.68.29-.21.14-.39.33-.53.56-.08.13-.14.29-.19.46-.04.17-.06.35-.06.54,0,.19.03.36.08.53.05.16.13.32.24.47l1.34.83c.27.04.54.03.8-.01.27-.04.51-.13.73-.27.22-.14.39-.31.52-.52Z"/>
        <path class="cls-3" d="M32.04,42.62l-5.08-4.44,1.19-1.36,4.35.95-1.52-4.18,1.19-1.36,5.08,4.44-1.1,1.25-3.29-2.87,1.24,3.4-.72.82-3.55-.77,3.3,2.88-1.09,1.24Z"/>
        <path class="cls-3" d="M38.28,35.73l-4.31-5.19,1.34-1.11,2.85,3.43-.5-5.38,1.22-1.01,4.31,5.19-1.34,1.11-2.76-3.33.44,5.26-1.25,1.04Z"/>
        <path class="cls-3" d="M45.82,29.95l-2.76-4.42-1.84,1.15-.81-1.3,5.16-3.22.81,1.3-1.84,1.15,2.76,4.42-1.48.92Z"/>
        <path class="cls-3" d="M50.03,27.42l-2.83-6.13,1.58-.73.88,1.91,1.4-.65c.75-.35,1.4-.42,1.97-.22.56.2.99.6,1.27,1.21.2.43.29.84.27,1.24s-.14.77-.39,1.1c-.24.33-.6.61-1.07.83l-3.09,1.43ZM51.05,25.49l1.25-.58c.23-.11.39-.23.49-.37.1-.14.15-.3.15-.47,0-.17-.04-.35-.12-.53-.08-.18-.19-.32-.31-.42-.12-.1-.27-.16-.45-.18-.17-.02-.38.03-.62.14l-1.24.57.85,1.84Z"/>
        <path class="cls-3" d="M62.76,22.89c-.55.13-1.06.15-1.52.08-.47-.08-.89-.24-1.27-.49-.38-.25-.7-.56-.95-.93-.26-.37-.44-.78-.54-1.23-.14-.61-.14-1.21.02-1.79.16-.58.46-1.09.91-1.52.45-.43,1.03-.73,1.75-.9.72-.17,1.37-.16,1.96.03s1.06.51,1.43.96l-1.53.89c-.2-.21-.44-.35-.7-.43-.27-.07-.55-.08-.84,0-.31.07-.58.22-.8.45-.22.22-.38.5-.47.82-.09.33-.08.69,0,1.09.09.38.25.7.47.96.23.26.49.44.79.55s.61.12.93.04c.21-.05.4-.13.56-.24.16-.11.3-.24.42-.4.12-.16.2-.32.23-.47l1.76.12c-.07.37-.23.71-.46,1.04-.23.33-.52.62-.88.86s-.78.42-1.27.53Z"/>
        <path class="cls-3" d="M69.85,21.72c-.54.05-1.04.01-1.5-.13-.46-.14-.86-.35-1.2-.64-.34-.29-.62-.63-.82-1.02-.2-.39-.33-.82-.38-1.29-.06-.63.02-1.23.26-1.79.24-.56.6-1.03,1.1-1.4.5-.37,1.12-.59,1.86-.67.73-.07,1.38.03,1.94.29.56.27,1,.65,1.34,1.14.34.49.54,1.05.6,1.66.01.11.02.22.02.32,0,.1,0,.18,0,.25l-5.23.52c.06.35.19.64.38.88.19.23.43.4.7.51.28.11.56.15.85.12.35-.04.68-.15.96-.35.29-.2.48-.45.56-.74l1.52.27c-.12.36-.32.69-.59.99-.28.3-.61.54-1.01.73-.4.19-.85.31-1.36.36ZM67.68,17.87l3.54-.35c-.07-.33-.19-.62-.38-.85-.18-.23-.41-.41-.68-.52s-.57-.15-.89-.12c-.31.03-.59.13-.83.29-.24.16-.43.38-.56.64-.14.26-.2.57-.2.91Z"/>
        <path class="cls-3" d="M78.45,21.56c-.53-.03-.99-.17-1.38-.43-.39-.26-.69-.59-.9-1l-.2,3.95-1.73-.09.48-9.5,1.52.08-.06,1.17c.28-.38.62-.67,1.03-.88.41-.21.87-.3,1.38-.27.46.02.88.13,1.25.33.38.2.7.47.97.8.27.33.48.72.61,1.14.13.43.19.88.17,1.35-.03.65-.19,1.24-.47,1.75-.28.52-.65.92-1.11,1.21-.46.29-.98.42-1.56.39ZM77.94,20.06c.26.01.5-.03.73-.13.23-.1.42-.24.59-.42.17-.18.3-.39.4-.64.1-.25.16-.5.17-.76.01-.27-.02-.53-.1-.78-.08-.25-.2-.46-.37-.65-.16-.19-.36-.34-.58-.45-.22-.11-.48-.18-.75-.19-.16,0-.32.01-.49.06-.17.04-.34.12-.5.21-.16.09-.3.2-.42.33-.12.12-.22.27-.29.43l-.08,1.58c.1.25.23.48.4.69s.37.38.59.51c.23.12.46.19.71.21Z"/>
        <path class="cls-3" d="M83.7,22.03l.93-5.13-2.14-.39.27-1.51,5.99,1.09-.27,1.51-2.14-.39-.93,5.13-1.71-.31Z"/>
        <path class="cls-3" d="M88.48,22.96l2.08-6.42,1.66.54-1.38,4.24,4.28-3.29,1.51.49-2.08,6.42-1.66-.54,1.33-4.11-4.2,3.18-1.55-.5Z"/>
        <path class="cls-3" d="M97.46,29.33l1.27-2.46-.19-.09c-.63-.33-1.1-.74-1.4-1.25-.3-.51-.46-1.05-.46-1.63,0-.58.13-1.13.4-1.66.28-.54.66-.98,1.13-1.31.47-.33,1-.52,1.6-.56.59-.04,1.2.09,1.82.42l.19.1,1.25-2.44,1.55.8-1.25,2.44.2.1c.62.32,1.09.73,1.4,1.24.31.51.47,1.05.47,1.63s-.13,1.14-.41,1.68c-.27.53-.64.96-1.11,1.29-.47.33-1,.52-1.59.57-.6.05-1.21-.09-1.84-.42l-.2-.1-1.27,2.46-1.55-.8ZM99.19,25.52l.27.14,1.81-3.51-.27-.14c-.29-.15-.58-.2-.89-.17-.31.04-.59.15-.86.35s-.49.47-.67.81c-.18.34-.27.68-.28,1.01s.06.63.21.89c.15.26.38.47.67.62ZM100.84,26.37l.28.14c.29.15.59.21.89.18.3-.03.58-.14.85-.34.26-.2.48-.47.66-.81.18-.34.27-.68.27-1.01s-.07-.63-.21-.9c-.15-.27-.37-.48-.65-.62l-.28-.14-1.81,3.51Z"/>
        <path class="cls-3" d="M104.29,29.93l4-5.43,1.4,1.03-2.64,3.59,5.1-1.77,1.28.94-4,5.43-1.4-1.03,2.57-3.48-4.99,1.69-1.31-.96Z"/>
        <path class="cls-3" d="M110.55,34.7l4.73-4.82,1.24,1.22-1.78,1.81.42.41,3.09-.52,1.36,1.33-3.99.62-.55,4.38-1.42-1.39.42-3.34-.4-.39-1.88,1.91-1.24-1.22Z"/>
        <path class="cls-3" d="M116.9,38.21c.34-.27.72-.4,1.13-.41.41,0,.82.11,1.23.34.41.23.8.58,1.16,1.04.17.23.34.47.48.73.15.26.25.5.31.73l.3-.23c.33-.26.51-.55.54-.89.03-.34-.11-.71-.42-1.11-.23-.3-.5-.54-.82-.73s-.67-.35-1.09-.5l.56-1.13c.51.16.97.39,1.37.67.4.29.76.63,1.08,1.04.6.77.87,1.51.83,2.23-.04.72-.42,1.35-1.13,1.9l-1.69,1.31c-.14.11-.22.22-.24.31-.02.1,0,.21.08.34l-1.12.87c-.12-.11-.22-.21-.31-.29-.09-.09-.16-.17-.21-.24-.21-.27-.31-.53-.3-.76.01-.23.09-.43.25-.6l.25-.25c-.49,0-.95-.12-1.38-.34s-.79-.51-1.08-.88c-.28-.36-.45-.73-.52-1.13-.07-.4-.04-.78.09-1.14s.35-.66.66-.9ZM119.24,41.75c.12.02.25.03.37,0,.12-.02.22-.05.28-.1l.53-.41c-.06-.22-.15-.43-.26-.66-.11-.22-.23-.42-.37-.59-.28-.36-.58-.59-.91-.7-.33-.11-.62-.07-.86.12-.13.1-.23.24-.3.41-.07.17-.08.36-.04.55.04.2.13.4.29.6.16.21.36.38.59.51.23.14.46.22.68.25Z"/>
        <path class="cls-3" d="M120.71,46.86l4.48-2.66-1.11-1.87,1.32-.78,3.1,5.23-1.32.78-1.11-1.87-4.48,2.66-.89-1.5Z"/>
      </g>
      <g>
        <path class="cls-3" d="M21.79,108.67c-.36-.57-.58-1.16-.65-1.76-.07-.6-.03-1.19.14-1.76.16-.58.42-1.1.78-1.59s.78-.88,1.28-1.2c.52-.33,1.08-.55,1.67-.65.6-.1,1.19-.1,1.77,0,.59.11,1.13.32,1.65.66.51.33.94.77,1.29,1.32.36.56.57,1.15.64,1.76.07.61.01,1.2-.16,1.77-.17.57-.44,1.09-.79,1.57-.36.48-.78.87-1.28,1.19-.51.32-1.06.54-1.65.65-.59.11-1.18.12-1.76,0-.58-.11-1.13-.33-1.64-.66s-.93-.77-1.28-1.32ZM24.32,103.91c-.34.21-.63.47-.88.77-.25.3-.44.63-.56.98-.12.35-.17.71-.13,1.08.04.37.17.74.39,1.1.24.37.52.65.84.83.33.18.67.29,1.05.33.37.04.75,0,1.12-.1.38-.1.72-.25,1.04-.46.34-.21.63-.47.87-.77.25-.3.43-.62.55-.98.12-.35.16-.71.13-1.08-.03-.37-.16-.73-.39-1.09-.23-.36-.51-.63-.83-.82-.33-.19-.68-.3-1.04-.34-.37-.04-.74,0-1.11.09-.37.1-.72.25-1.04.45Z"/>
        <path class="cls-3" d="M26.05,118.78l2.04-1.88-.14-.15c-.48-.52-.78-1.08-.89-1.66-.11-.58-.07-1.15.13-1.69.2-.54.51-1.02.95-1.42.45-.41.95-.69,1.51-.84s1.12-.14,1.69.02c.57.16,1.09.5,1.57,1.02l.14.15,2.02-1.86,1.18,1.28-2.02,1.86.15.16c.47.52.77,1.07.89,1.65.12.58.08,1.15-.12,1.69-.2.54-.52,1.02-.97,1.44-.44.4-.93.68-1.49.83-.56.15-1.12.15-1.69-.01-.57-.16-1.1-.5-1.58-1.02l-.15-.16-2.04,1.87-1.18-1.28ZM28.98,115.8l.2.22,2.91-2.68-.2-.22c-.22-.24-.47-.39-.77-.46s-.61-.06-.93.03c-.32.09-.62.27-.91.53-.28.26-.49.54-.61.85-.12.31-.16.61-.11.91.05.3.19.57.41.81ZM30.23,117.17l.21.23c.22.24.48.4.77.48.29.08.6.07.91-.03.32-.1.62-.28.9-.54.28-.26.49-.55.61-.86.12-.31.16-.62.11-.92-.05-.3-.18-.57-.4-.81l-.21-.23-2.91,2.68Z"/>
        <path class="cls-3" d="M36.08,124.57c-.44-.34-.77-.72-1-1.14-.23-.42-.36-.85-.41-1.3-.04-.45,0-.89.13-1.31.13-.43.34-.82.62-1.18.3-.38.64-.68,1.02-.91.39-.23.8-.38,1.24-.44s.89-.03,1.35.1c.46.13.91.36,1.34.7.44.35.78.73,1.01,1.14.23.42.37.84.42,1.29.05.45,0,.88-.12,1.32-.13.43-.34.84-.64,1.21-.29.36-.62.66-1.01.88-.39.22-.8.37-1.25.43-.45.06-.9.04-1.36-.09s-.91-.35-1.35-.7ZM36.83,120.72c-.24.3-.39.62-.45.96-.07.34-.04.66.07.96.11.3.29.55.55.76.26.2.55.32.87.35.32.03.63-.03.95-.16.31-.14.59-.36.83-.67.24-.3.38-.62.44-.96.06-.34.04-.66-.07-.96-.1-.3-.29-.56-.55-.77-.26-.2-.55-.32-.87-.35s-.63.03-.94.17c-.31.14-.58.37-.82.67Z"/>
        <path class="cls-3" d="M44.48,130.13c-.46-.26-.81-.6-1.04-1.01-.24-.41-.35-.84-.35-1.3l-1.95,3.43-1.5-.86,4.71-8.27,1.32.75-.58,1.02c.42-.21.86-.32,1.32-.32.46,0,.91.13,1.35.38.4.23.72.51.97.86.25.35.42.73.51,1.16.09.42.1.85.03,1.3-.07.44-.22.87-.46,1.28-.32.57-.73,1.02-1.21,1.35-.48.34-1,.53-1.54.58-.54.05-1.07-.07-1.57-.36ZM44.71,128.56c.23.13.46.2.71.21.25.01.48-.02.71-.11.23-.09.44-.22.64-.39.2-.17.36-.38.5-.61.13-.24.22-.48.26-.74.04-.25.03-.5-.03-.75-.06-.24-.17-.46-.32-.66-.15-.2-.34-.37-.59-.51-.13-.08-.29-.13-.46-.17-.17-.04-.35-.05-.54-.04s-.36.04-.52.1c-.16.06-.32.14-.46.26l-.78,1.38c-.02.27,0,.54.04.8.05.26.15.5.3.72.15.21.33.38.54.5Z"/>
        <path class="cls-3" d="M49.41,132.58l2.35-6.32,1.69.63.65,4.41,3.37-2.91,1.69.63-2.35,6.32-1.56-.58,1.52-4.09-2.74,2.36-1.02-.38-.54-3.59-1.53,4.1-1.55-.58Z"/>
        <path class="cls-3" d="M59.61,136.07l1.32-6.62,1.71.34-.87,4.37,3.87-3.77,1.56.31-1.32,6.62-1.71-.34.85-4.24-3.8,3.65-1.59-.32Z"/>
        <path class="cls-3" d="M70.22,137.72l.32-5.2-2.17-.13.09-1.53,6.07.38-.09,1.53-2.17-.13-.32,5.2-1.74-.11Z"/>
        <path class="cls-3" d="M76.27,137.94l-.43-6.73,1.74-.11.13,2.1,1.54-.1c.82-.05,1.46.12,1.91.5.46.39.7.92.75,1.59.03.47-.04.89-.19,1.26-.16.37-.41.66-.76.89-.35.22-.78.35-1.3.39l-3.4.22ZM77.92,136.51l1.38-.09c.25-.02.45-.07.59-.17s.24-.23.31-.39c.06-.16.09-.34.08-.54-.01-.19-.06-.36-.14-.5-.08-.14-.2-.25-.35-.33-.16-.08-.36-.11-.62-.1l-1.36.09.13,2.02Z"/>
        <path class="cls-3" d="M91.52,135.81c-.54.15-1.05.19-1.52.13-.47-.06-.9-.21-1.29-.45-.39-.24-.71-.54-.98-.9-.27-.36-.46-.77-.58-1.21-.16-.6-.18-1.2-.04-1.79.14-.59.42-1.11.86-1.55.44-.45,1.01-.77,1.72-.96.71-.19,1.36-.2,1.96-.03.59.17,1.08.47,1.46.91l-1.5.94c-.21-.2-.45-.34-.72-.41-.27-.07-.55-.06-.84.02-.31.08-.57.24-.79.47-.22.23-.36.51-.44.84-.08.33-.06.69.04,1.08.1.38.27.69.5.95.24.25.5.43.81.52.3.09.61.1.93.01.21-.06.39-.14.55-.26.16-.11.29-.25.41-.41.12-.16.19-.32.21-.48l1.77.06c-.06.37-.2.72-.42,1.06-.22.34-.5.63-.85.88-.35.25-.77.44-1.25.57Z"/>
        <path class="cls-3" d="M99.51,133.06c-.5.21-1,.32-1.47.32s-.92-.09-1.34-.26c-.41-.17-.77-.42-1.08-.74-.31-.32-.56-.69-.74-1.12-.25-.59-.34-1.18-.28-1.79.06-.61.27-1.16.64-1.66.37-.5.89-.9,1.58-1.19.68-.29,1.32-.38,1.94-.29.61.09,1.15.32,1.62.7.47.37.82.84,1.06,1.41.04.1.08.2.11.29.03.09.05.17.07.24l-4.84,2.03c.16.32.37.56.62.72.25.17.53.26.82.28.3.02.58-.02.85-.14.33-.14.6-.34.82-.62.22-.27.32-.57.32-.87l1.53-.19c0,.38-.1.75-.28,1.12-.18.37-.43.7-.75,1-.33.3-.72.55-1.19.75ZM96.3,130.03l3.29-1.38c-.16-.3-.37-.53-.61-.7-.25-.17-.51-.27-.81-.3-.29-.03-.59.02-.88.14-.29.12-.52.29-.7.52-.18.23-.3.49-.35.78-.05.29-.03.6.07.93Z"/>
        <path class="cls-3" d="M108.42,128.45c-.45.28-.91.42-1.39.42s-.91-.1-1.31-.32l2.05,3.38-1.48.9-4.95-8.13,1.3-.79.61,1c.02-.47.14-.91.36-1.31.22-.4.55-.74.99-1,.39-.24.8-.38,1.22-.43.42-.05.84,0,1.26.12s.8.32,1.15.6c.35.28.65.62.89,1.02.34.56.54,1.13.59,1.72.06.59-.02,1.13-.24,1.63-.22.5-.58.9-1.07,1.2ZM107.15,127.49c.22-.14.4-.31.53-.52.13-.21.21-.43.25-.67.04-.24.03-.49-.03-.75-.06-.26-.15-.5-.29-.73-.14-.23-.31-.43-.52-.59-.2-.16-.43-.27-.67-.33s-.49-.08-.73-.04c-.25.03-.49.12-.73.26-.13.08-.26.19-.37.32s-.21.29-.29.45c-.08.17-.13.34-.16.51-.03.17-.03.35,0,.53l.82,1.35c.22.15.46.27.72.35s.52.11.78.09c.26-.02.49-.1.7-.22Z"/>
        <path class="cls-3" d="M113.64,124.64l-3.26-4.07-1.69,1.36-.96-1.2,4.75-3.8.96,1.2-1.69,1.36,3.26,4.07-1.36,1.09Z"/>
        <path class="cls-3" d="M118.31,120.72l-4.89-4.65,1.2-1.26,3.23,3.07-1.12-5.29,1.09-1.15,4.89,4.65-1.2,1.26-3.13-2.98,1.05,5.17-1.12,1.18Z"/>
        <path class="cls-3" d="M128.68,112.81l-2.29-1.56-.12.17c-.4.59-.87,1-1.42,1.24-.54.24-1.1.32-1.68.26-.57-.07-1.11-.27-1.59-.6-.5-.34-.89-.77-1.16-1.28-.27-.51-.39-1.06-.36-1.66.03-.59.24-1.18.64-1.76l.12-.17-2.26-1.55.98-1.44,2.26,1.55.12-.18c.4-.58.87-.99,1.41-1.23.54-.24,1.1-.33,1.67-.26.57.07,1.11.27,1.62.62.49.34.87.76,1.14,1.26.27.51.4,1.06.37,1.66-.03.59-.24,1.19-.64,1.77l-.12.18,2.29,1.56-.98,1.44ZM125.12,110.63l.17-.25-3.26-2.23-.17.25c-.18.26-.27.55-.28.86,0,.31.08.61.24.9.16.29.4.54.72.76.32.22.64.35.97.4.33.05.63.02.91-.1.28-.12.51-.31.7-.58ZM126.17,109.09l.18-.26c.19-.27.28-.56.29-.86.01-.3-.07-.6-.23-.88s-.41-.54-.73-.76c-.32-.22-.64-.35-.97-.4-.33-.05-.64-.01-.92.1-.29.11-.52.3-.7.57l-.18.26,3.26,2.23Z"/>
        <path class="cls-3" d="M130.57,104.6l-6.11-2.87.74-1.58,4.03,1.9-2.73-4.66.67-1.43,6.11,2.87-.74,1.58-3.92-1.84,2.63,4.57-.69,1.47Z"/>
        <path class="cls-3" d="M134.28,96.22l-6.45-1.98.51-1.67,2.42.75.17-.56-1.88-2.51.56-1.81,2.38,3.26,4.14-1.53-.58,1.9-3.16,1.16-.16.53,2.56.79-.51,1.67Z"/>
        <path class="cls-3" d="M134.55,88.25c-.43-.07-.79-.25-1.07-.55-.28-.3-.48-.68-.59-1.14-.11-.46-.12-.98-.02-1.55.05-.28.12-.56.21-.85.09-.28.2-.52.33-.72l-.37-.06c-.41-.07-.75,0-1.02.21-.27.21-.44.56-.52,1.06-.06.38-.06.74.02,1.1.07.36.2.74.38,1.14l-1.2.35c-.23-.49-.37-.97-.44-1.46-.06-.49-.05-.99.03-1.5.16-.96.52-1.67,1.07-2.12.56-.46,1.28-.61,2.16-.47l2.11.35c.18.03.31.02.4-.03.09-.05.15-.15.19-.29l1.4.23c0,.16,0,.3,0,.43,0,.13-.02.23-.04.32-.06.34-.17.59-.35.74-.18.15-.38.22-.61.22l-.35-.02c.33.36.56.78.69,1.25.13.47.16.93.09,1.39-.07.44-.23.83-.48,1.15-.25.32-.54.56-.89.71-.35.15-.72.19-1.11.13ZM135.56,84.12c-.07-.11-.15-.2-.25-.28-.1-.08-.19-.12-.26-.13l-.66-.11c-.12.19-.22.4-.3.63s-.15.46-.18.67c-.07.44-.04.83.1,1.14s.37.5.67.55c.17.03.33,0,.5-.06.17-.07.31-.18.44-.34.12-.16.2-.37.24-.62.04-.26.03-.52-.03-.78-.06-.26-.15-.49-.28-.66Z"/>
        <path class="cls-3" d="M137.82,78.35l-5.21-.2-.08,2.17-1.53-.06.24-6.08,1.53.06-.08,2.17,5.21.2-.07,1.74Z"/>
      </g>
    </g>
    <circle class="cls-3" cx="18.51" cy="89.31" r="1.69"/>
    <circle class="cls-3" cx="131.49" cy="60.69" r="1.69"/>
  </g>
  <g>
    <polygon class="cls-3" points="54.65 113.05 46.13 79.55 48.07 79.06 56.09 110.62 108.64 97.26 100.62 65.7 102.56 65.21 111.07 98.7 54.65 113.05"/>
    <polygon class="cls-3" points="42.82 81.43 39.11 66.82 102.64 50.67 106.36 65.27 80.92 71.74 80.43 69.8 103.92 63.83 101.2 53.1 41.54 68.27 44.27 79 67.76 73.02 68.26 74.96 42.82 81.43"/>
    <path class="cls-3" d="M75.56,107.73l-11.98-47.13,14.6-3.71,11.98,47.13-14.6,3.71ZM66.01,62.05l11,43.25,10.73-2.73-11-43.25-10.73,2.73Z"/>
    <path class="cls-3" d="M71.37,60.68l-.49-1.94s0,0,0,0c1.79-.46,2.33-2.64,3.07-6.17,1.01-4.8,2.26-10.77,9.3-12.56,2.41-.61,4.47-.43,6.11.55,1.61.96,2.73,2.62,3.3,4.94,1.58,6.2-5.4,11.14-21.29,15.18,0,0,0,0,0,0ZM85.87,41.66c-.65,0-1.36.1-2.12.29-5.83,1.48-6.9,6.56-7.84,11.03-.36,1.72-.71,3.4-1.33,4.76,11.83-3.43,17.27-7.35,16.16-11.68-.46-1.85-1.27-3.1-2.41-3.78-.69-.41-1.52-.62-2.47-.62Z"/>
    <path class="cls-3" d="M55.76,63.11c-2.1,0-3.88-.22-5.34-.66-3.65-1.1-4.6-3.3-5-4.87-.61-2.37-.43-4.36.53-5.98.97-1.64,2.69-2.79,5.1-3.4,7.04-1.79,10.99,2.86,14.17,6.59,2.34,2.75,3.86,4.41,5.65,3.96l.49,1.94s0,0,0,0c-6.34,1.61-11.56,2.42-15.6,2.42ZM53.99,49.82c-.76,0-1.57.1-2.44.32-1.88.48-3.18,1.31-3.88,2.48-.68,1.14-.79,2.62-.33,4.4.23.9.67,2.62,3.65,3.52,3.36,1.01,8.78.7,16.15-.91-1.19-.9-2.3-2.2-3.44-3.54-2.52-2.97-5.34-6.27-9.71-6.27Z"/>
  </g>
</svg>